<svg width="48" height="48" viewBox="0 0 48 48" fill="none" xmlns="http://www.w3.org/2000/svg">
<path d="M20.8334 16C18.164 16 16 18.164 16 20.8334C16 22.5822 17.4178 24 19.1667 24H28.8334C30.5822 24 32 22.5822 32 20.8334C32 18.164 29.836 16 27.1666 16H20.8334ZM19 20.8334C19 19.8208 19.8208 19 20.8334 19H27.1666C28.1792 19 29 19.8208 29 20.8334C29 20.9254 28.9254 21 28.8334 21H19.1667C19.0746 21 19 20.9254 19 20.8334ZM24 4C20.0774 4 16.8582 7.01132 16.5279 10.8483C11.4559 13.5319 8 18.8624 8 25V37.5C8 41.0898 10.9101 44 14.5 44H33.5C37.0898 44 40 41.0898 40 37.5V25C40 18.8624 36.5442 13.5319 31.472 10.8483C31.1418 7.01132 27.9226 4 24 4ZM37 28H11V25C11 17.8203 16.8203 12 24 12C31.1798 12 37 17.8203 37 25V28ZM16 34.5C16 35.3284 16.6716 36 17.5 36C18.3284 36 19 35.3284 19 34.5V31.4286H37V37.5C37 39.433 35.433 41 33.5 41H14.5C12.567 41 11 39.433 11 37.5V31.4286H16V34.5ZM24 9C22.6046 9 21.251 9.17862 19.9607 9.51424C20.6944 8.0248 22.2274 7 24 7C25.7726 7 27.3056 8.0248 28.0392 9.51424C26.749 9.17862 25.3954 9 24 9Z" fill="white"/>
</svg>
