<svg width="48" height="48" viewBox="0 0 48 48" fill="none" xmlns="http://www.w3.org/2000/svg">
<path d="M21 16C17.6863 16 15 18.6863 15 22C15 25.3138 17.6863 28 21 28C24.3138 28 27 25.3138 27 22C27 18.6863 24.3138 16 21 16ZM18 22C18 20.3432 19.3431 19 21 19C22.6568 19 24 20.3432 24 22C24 23.6568 22.6568 25 21 25C19.3431 25 18 23.6568 18 22ZM4 14.5C4 12.0147 6.01472 10 8.5 10H33.5C35.9852 10 38 12.0147 38 14.5V29.5C38 31.9852 35.9852 34 33.5 34H8.5C6.01472 34 4 31.9852 4 29.5V14.5ZM8.5 13C7.67158 13 7 13.6716 7 14.5V16H8.5C9.32842 16 10 15.3284 10 14.5V13H8.5ZM7 25H8.5C10.9853 25 13 27.0148 13 29.5V31H29V29.5C29 27.0148 31.0148 25 33.5 25H35V19H33.5C31.0148 19 29 16.9853 29 14.5V13H13V14.5C13 16.9853 10.9853 19 8.5 19H7V25ZM35 16V14.5C35 13.6716 34.3284 13 33.5 13H32V14.5C32 15.3284 32.6716 16 33.5 16H35ZM35 28H33.5C32.6716 28 32 28.6716 32 29.5V31H33.5C34.3284 31 35 30.3284 35 29.5V28ZM7 29.5C7 30.3284 7.67158 31 8.5 31H10V29.5C10 28.6716 9.32842 28 8.5 28H7V29.5ZM8.80274 37C9.84016 38.7934 11.7792 40 14 40H34.5C39.7468 40 44 35.7468 44 30.5V20C44 17.7792 42.7934 15.8402 41 14.8027V30.5C41 34.0898 38.0898 37 34.5 37H8.80274Z" fill="white"/>
</svg>
